<?xml version="1.0" encoding="utf-8"?>
<svg xmlns="http://www.w3.org/2000/svg" style="margin: auto; background: none; display: block; shape-rendering: auto;" width="251" height="102" preserveAspectRatio="xMidYMid">
<style type="text/css">
  text {
    text-anchor: middle; font-size: 29px; opacity: 0;
  }
</style>
<g style="transform-origin: 125.5px 51px; transform: scale(0.159341);">
<g transform="translate(125.5,51)">
  <g transform="translate(0,0)"><g class="path" style="transform: scale(0.91); transform-origin: -652.105px -14.6071px; animation: 1s linear -0.612857s infinite normal forwards running breath-0eee8c98-eb3b-4ff6-877f-7dad5a3d19ea;"><path d="M16.56 1.46L1.82-4.55L51.69-127.40L70.62-127.40L119.76-4.55L103.92 1.82L89.73-34.58L30.76-34.58L16.56 1.46zM60.24-110.29L36.22-49.14L84.08-49.14L60.24-110.29" fill="#93dbe9" stroke="none" stroke-width="none" transform="translate(-712.8949890136719,48.18291521344865)" style="fill: rgb(147, 219, 233);"></path></g><g class="path" style="transform: scale(0.91); transform-origin: -566.29px -15.5171px; animation: 1s linear -0.565714s infinite normal forwards running breath-0eee8c98-eb3b-4ff6-877f-7dad5a3d19ea;"><path d="M155.25 0L137.96 0L137.96-127.40L155.25-127.40L155.25 0" fill="#93dbe9" stroke="none" stroke-width="none" transform="translate(-712.8949890136719,48.18291521344865)" style="fill: rgb(104, 156, 197);"></path></g><g class="path" style="transform: scale(0.91); transform-origin: -486.665px -14.2421px; animation: 1s linear -0.518571s infinite normal forwards running breath-0eee8c98-eb3b-4ff6-877f-7dad5a3d19ea;"><path d="M257.17-54.96L195.29-54.96L195.29-69.89L257.17-69.89L257.17-54.96" fill="#93dbe9" stroke="none" stroke-width="none" transform="translate(-712.8949890136719,48.18291521344865)" style="fill: rgb(94, 111, 163);"></path></g><g class="path" style="transform: scale(0.91); transform-origin: -393.39px -15.5171px; animation: 1s linear -0.471429s infinite normal forwards running breath-0eee8c98-eb3b-4ff6-877f-7dad5a3d19ea;"><path d="M271.73-112.11L271.73-127.40L367.28-127.40L367.28-112.11L328.15-112.11L328.15 0L310.86 0L310.86-112.11L271.73-112.11" fill="#93dbe9" stroke="none" stroke-width="none" transform="translate(-712.8949890136719,48.18291521344865)" style="fill: rgb(59, 67, 104);"></path></g><g class="path" style="transform: scale(0.91); transform-origin: -282.19px -15.1571px; animation: 1s linear -0.424286s infinite normal forwards running breath-0eee8c98-eb3b-4ff6-877f-7dad5a3d19ea;"><path d="M475.93-5.46L459.73 2.18L443.90-32.40L443.90-32.40Q437.89-45.32 428.79-50.78L428.79-50.78L428.79-50.78Q419.69-56.24 405.50-56.24L405.50-56.24L402.77-56.24L402.77 0L385.48 0L385.48-127.04L385.48-127.04Q395.30-127.95 403.95-128.40L403.95-128.40L403.95-128.40Q412.59-128.86 422.79-128.86L422.79-128.86L422.79-128.86Q434.43-128.86 443.17-126.40L443.17-126.40L443.17-126.40Q451.91-123.94 457.73-119.39L457.73-119.39L457.73-119.39Q463.55-114.84 466.56-108.65L466.56-108.65L466.56-108.65Q469.56-102.47 469.56-95.00L469.56-95.00L469.56-95.00Q469.56-81.72 461.64-73.62L461.64-73.62L461.64-73.62Q453.73-65.52 438.80-61.52L438.80-61.52L438.80-61.52Q442.44-59.88 445.54-57.78L445.54-57.78L445.54-57.78Q448.63-55.69 451.36-52.69L451.36-52.69L451.36-52.69Q454.09-49.69 456.73-45.50L456.73-45.50L456.73-45.50Q459.37-41.31 462.10-35.31L462.10-35.31L475.93-5.46zM422.79-114.30L422.79-114.30L422.79-114.30Q416.60-114.30 411.68-114.11L411.68-114.11L411.68-114.11Q406.77-113.93 402.77-113.57L402.77-113.57L402.77-70.80L422.79-70.80L422.79-70.80Q435.89-70.80 444.08-76.62L444.08-76.62L444.08-76.62Q452.27-82.45 452.27-93.37L452.27-93.37L452.27-93.37Q452.27-102.47 444.63-108.38L444.63-108.38L444.63-108.38Q436.98-114.30 422.79-114.30" fill="#93dbe9" stroke="none" stroke-width="none" transform="translate(-712.8949890136719,48.18291521344865)" style="fill: rgb(25, 29, 58);"></path></g><g class="path" style="transform: scale(0.91); transform-origin: -170.715px -14.6071px; animation: 1s linear -0.377143s infinite normal forwards running breath-0eee8c98-eb3b-4ff6-877f-7dad5a3d19ea;"><path d="M497.95 1.46L483.21-4.55L533.08-127.40L552.01-127.40L601.15-4.55L585.31 1.82L571.12-34.58L512.15-34.58L497.95 1.46zM541.63-110.29L517.61-49.14L565.47-49.14L541.63-110.29" fill="#93dbe9" stroke="none" stroke-width="none" transform="translate(-712.8949890136719,48.18291521344865)" style="fill: rgb(217, 219, 238);"></path></g><g class="path" style="transform: scale(0.91); transform-origin: -45.77px -15.5171px; animation: 1s linear -0.33s infinite normal forwards running breath-0eee8c98-eb3b-4ff6-877f-7dad5a3d19ea;"><path d="M692.33 0L635.73-105.20L635.73 0L619.35 0L619.35-127.40L642.28-127.40L698.52-21.48L698.52-127.40L714.90-127.40L714.90 0L692.33 0" fill="#93dbe9" stroke="none" stroke-width="none" transform="translate(-712.8949890136719,48.18291521344865)" style="fill: rgb(179, 183, 226);"></path></g><g class="path" style="transform: scale(0.91); transform-origin: 68.25px -15.5171px; animation: 1s linear -0.282857s infinite normal forwards running breath-0eee8c98-eb3b-4ff6-877f-7dad5a3d19ea;"><path d="M736.74-10.74L745.47-25.30L745.47-25.30Q752.02-19.84 760.21-16.38L760.21-16.38L760.21-16.38Q768.40-12.92 779.32-12.92L779.32-12.92L779.32-12.92Q792.43-12.92 800.07-18.38L800.07-18.38L800.07-18.38Q807.72-23.84 807.72-33.12L807.72-33.12L807.72-33.12Q807.72-36.95 806.62-40.22L806.62-40.22L806.62-40.22Q805.53-43.50 802.35-46.50L802.35-46.50L802.35-46.50Q799.16-49.50 793.43-52.51L793.43-52.51L793.43-52.51Q787.70-55.51 778.60-58.97L778.60-58.97L778.60-58.97Q768.77-62.79 761.94-66.52L761.94-66.52L761.94-66.52Q755.12-70.25 750.93-74.71L750.93-74.71L750.93-74.71Q746.75-79.17 744.93-84.54L744.93-84.54L744.93-84.54Q743.11-89.91 743.11-96.82L743.11-96.82L743.11-96.82Q743.11-103.56 745.93-109.56L745.93-109.56L745.93-109.56Q748.75-115.57 754.30-120.03L754.30-120.03L754.30-120.03Q759.85-124.49 767.95-127.04L767.95-127.04L767.95-127.04Q776.05-129.58 786.42-129.58L786.42-129.58L786.42-129.58Q797.71-129.58 806.62-127.31L806.62-127.31L806.62-127.31Q815.54-125.03 824.28-120.85L824.28-120.85L817.91-106.11L817.91-106.11Q811.72-109.75 803.44-112.20L803.44-112.20L803.44-112.20Q795.16-114.66 786.06-114.66L786.06-114.66L786.06-114.66Q774.05-114.66 767.13-110.02L767.13-110.02L767.13-110.02Q760.21-105.38 760.21-97.73L760.21-97.73L760.21-97.73Q760.21-94.09 761.21-91.27L761.21-91.27L761.21-91.27Q762.22-88.45 765.22-85.81L765.22-85.81L765.22-85.81Q768.22-83.17 773.59-80.44L773.59-80.44L773.59-80.44Q778.96-77.71 787.88-74.44L787.88-74.44L787.88-74.44Q798.43-70.43 805.71-66.25L805.71-66.25L805.71-66.25Q812.99-62.06 817.36-57.33L817.36-57.33L817.36-57.33Q821.73-52.60 823.64-47.14L823.64-47.14L823.64-47.14Q825.55-41.68 825.55-35.13L825.55-35.13L825.55-35.13Q825.55-26.21 822.09-19.29L822.09-19.29L822.09-19.29Q818.64-12.38 812.54-7.55L812.54-7.55L812.54-7.55Q806.44-2.73 797.89-0.27L797.89-0.27L797.89-0.27Q789.33 2.18 779.32 2.18L779.32 2.18L779.32 2.18Q766.04 2.18 755.12-1.36L755.12-1.36L755.12-1.36Q744.20-4.91 736.74-10.74L736.74-10.74" fill="#93dbe9" stroke="none" stroke-width="none" transform="translate(-712.8949890136719,48.18291521344865)" style="fill: rgb(147, 219, 233);"></path></g><g class="path" style="transform: scale(0.91); transform-origin: 176.72px -15.5171px; animation: 1s linear -0.235714s infinite normal forwards running breath-0eee8c98-eb3b-4ff6-877f-7dad5a3d19ea;"><path d="M861.41-63.88L861.41-63.88L861.41-63.88Q861.41-52.42 864.41-43.04L864.41-43.04L864.41-43.04Q867.41-33.67 872.78-26.94L872.78-26.94L872.78-26.94Q878.15-20.20 885.61-16.56L885.61-16.56L885.61-16.56Q893.07-12.92 901.99-12.92L901.99-12.92L901.99-12.92Q910.91-12.92 917.46-15.01L917.46-15.01L917.46-15.01Q924.01-17.11 930.20-20.75L930.20-20.75L935.48-6.37L935.48-6.37Q928.75-2.73 920.10-0.27L920.10-0.27L920.10-0.27Q911.46 2.18 899.99 2.18L899.99 2.18L899.99 2.18Q887.43 2.18 877.15-2.37L877.15-2.37L877.15-2.37Q866.87-6.92 859.40-15.38L859.40-15.38L859.40-15.38Q851.94-23.84 847.85-35.95L847.85-35.95L847.85-35.95Q843.75-48.05 843.75-63.15L843.75-63.15L843.75-63.15Q843.75-77.71 847.85-89.91L847.85-89.91L847.85-89.91Q851.94-102.10 859.59-110.93L859.59-110.93L859.59-110.93Q867.23-119.76 878.06-124.67L878.06-124.67L878.06-124.67Q888.89-129.58 902.17-129.58L902.17-129.58L902.17-129.58Q911.46-129.58 918.83-127.85L918.83-127.85L918.83-127.85Q926.20-126.13 932.75-123.03L932.75-123.03L927.47-108.47L927.47-108.47Q921.83-111.20 915.91-112.84L915.91-112.84L915.91-112.84Q910.00-114.48 901.99-114.48L901.99-114.48L901.99-114.48Q893.26-114.48 885.79-111.11L885.79-111.11L885.79-111.11Q878.33-107.74 872.87-101.19L872.87-101.19L872.87-101.19Q867.41-94.64 864.41-85.27L864.41-85.27L864.41-85.27Q861.41-75.89 861.41-63.88" fill="#93dbe9" stroke="none" stroke-width="none" transform="translate(-712.8949890136719,48.18291521344865)" style="fill: rgb(104, 156, 197);"></path></g><g class="path" style="transform: scale(0.91); transform-origin: 291.47px -15.1571px; animation: 1s linear -0.188571s infinite normal forwards running breath-0eee8c98-eb3b-4ff6-877f-7dad5a3d19ea;"><path d="M1049.59-5.46L1033.40 2.18L1017.56-32.40L1017.56-32.40Q1011.56-45.32 1002.46-50.78L1002.46-50.78L1002.46-50.78Q993.36-56.24 979.16-56.24L979.16-56.24L976.43-56.24L976.43 0L959.14 0L959.14-127.04L959.14-127.04Q968.97-127.95 977.61-128.40L977.61-128.40L977.61-128.40Q986.26-128.86 996.45-128.86L996.45-128.86L996.45-128.86Q1008.10-128.86 1016.83-126.40L1016.83-126.40L1016.83-126.40Q1025.57-123.94 1031.39-119.39L1031.39-119.39L1031.39-119.39Q1037.22-114.84 1040.22-108.65L1040.22-108.65L1040.22-108.65Q1043.22-102.47 1043.22-95.00L1043.22-95.00L1043.22-95.00Q1043.22-81.72 1035.31-73.62L1035.31-73.62L1035.31-73.62Q1027.39-65.52 1012.47-61.52L1012.47-61.52L1012.47-61.52Q1016.11-59.88 1019.20-57.78L1019.20-57.78L1019.20-57.78Q1022.29-55.69 1025.02-52.69L1025.02-52.69L1025.02-52.69Q1027.75-49.69 1030.39-45.50L1030.39-45.50L1030.39-45.50Q1033.03-41.31 1035.76-35.31L1035.76-35.31L1049.59-5.46zM996.45-114.30L996.45-114.30L996.45-114.30Q990.26-114.30 985.35-114.11L985.35-114.11L985.35-114.11Q980.43-113.93 976.43-113.57L976.43-113.57L976.43-70.80L996.45-70.80L996.45-70.80Q1009.55-70.80 1017.74-76.62L1017.74-76.62L1017.74-76.62Q1025.93-82.45 1025.93-93.37L1025.93-93.37L1025.93-93.37Q1025.93-102.47 1018.29-108.38L1018.29-108.38L1018.29-108.38Q1010.65-114.30 996.45-114.30" fill="#93dbe9" stroke="none" stroke-width="none" transform="translate(-712.8949890136719,48.18291521344865)" style="fill: rgb(94, 111, 163);"></path></g><g class="path" style="transform: scale(0.91); transform-origin: 367.18px -15.5171px; animation: 1s linear -0.141429s infinite normal forwards running breath-0eee8c98-eb3b-4ff6-877f-7dad5a3d19ea;"><path d="M1088.72 0L1071.43 0L1071.43-127.40L1088.72-127.40L1088.72 0" fill="#93dbe9" stroke="none" stroke-width="none" transform="translate(-712.8949890136719,48.18291521344865)" style="fill: rgb(59, 67, 104);"></path></g><g class="path" style="transform: scale(0.91); transform-origin: 453.63px -15.5171px; animation: 1s linear -0.0942857s infinite normal forwards running breath-0eee8c98-eb3b-4ff6-877f-7dad5a3d19ea;"><path d="M1121.48-0.36L1121.48-127.04L1121.48-127.04Q1127.85-127.76 1137.23-128.31L1137.23-128.31L1137.23-128.31Q1146.60-128.86 1158.98-128.86L1158.98-128.86L1158.98-128.86Q1182.45-128.86 1194.92-120.12L1194.92-120.12L1194.92-120.12Q1207.39-111.38 1207.39-96.10L1207.39-96.10L1207.39-96.10Q1207.39-85.90 1202.11-78.99L1202.11-78.99L1202.11-78.99Q1196.83-72.07 1186.46-67.52L1186.46-67.52L1186.46-67.52Q1198.83-63.15 1205.20-55.51L1205.20-55.51L1205.20-55.51Q1211.57-47.87 1211.57-36.40L1211.57-36.40L1211.57-36.40Q1211.57-18.93 1198.01-8.74L1198.01-8.74L1198.01-8.74Q1184.46 1.46 1158.25 1.46L1158.25 1.46L1158.25 1.46Q1147.15 1.46 1137.23 1.00L1137.23 1.00L1137.23 1.00Q1127.31 0.55 1121.48-0.36L1121.48-0.36zM1159.52-12.92L1159.52-12.92L1159.52-12.92Q1175.90-12.92 1184.91-18.75L1184.91-18.75L1184.91-18.75Q1193.92-24.57 1193.92-35.67L1193.92-35.67L1193.92-35.67Q1193.92-46.59 1185.00-52.78L1185.00-52.78L1185.00-52.78Q1176.08-58.97 1159.52-58.97L1159.52-58.97L1138.77-58.97L1138.77-14.01L1138.77-14.01Q1148.24-12.92 1159.52-12.92zM1138.77-72.44L1158.79-72.44L1158.79-72.44Q1173.17-72.44 1181.63-78.35L1181.63-78.35L1181.63-78.35Q1190.10-84.27 1190.10-93.91L1190.10-93.91L1190.10-93.91Q1190.10-104.29 1181.73-109.56L1181.73-109.56L1181.73-109.56Q1173.35-114.84 1158.79-114.84L1158.79-114.84L1158.79-114.84Q1152.79-114.84 1147.87-114.57L1147.87-114.57L1147.87-114.57Q1142.96-114.30 1138.77-113.93L1138.77-113.93L1138.77-72.44" fill="#93dbe9" stroke="none" stroke-width="none" transform="translate(-712.8949890136719,48.18291521344865)" style="fill: rgb(25, 29, 58);"></path></g><g class="path" style="transform: scale(0.91); transform-origin: 561.465px -15.5171px; animation: 1s linear -0.0471429s infinite normal forwards running breath-0eee8c98-eb3b-4ff6-877f-7dad5a3d19ea;"><path d="M1236.14 0L1236.14-127.40L1312.58-127.40L1312.58-112.48L1253.43-112.48L1253.43-73.71L1304.39-73.71L1304.39-59.15L1253.43-59.15L1253.43-14.92L1312.58-14.92L1312.58 0L1236.14 0" fill="#93dbe9" stroke="none" stroke-width="none" transform="translate(-712.8949890136719,48.18291521344865)" style="fill: rgb(217, 219, 238);"></path></g><g class="path" style="transform: scale(0.91); transform-origin: 669.485px -15.1571px; animation: 1s linear 0s infinite normal forwards running breath-0eee8c98-eb3b-4ff6-877f-7dad5a3d19ea;"><path d="M1427.61-5.46L1411.41 2.18L1395.58-32.40L1395.58-32.40Q1389.57-45.32 1380.47-50.78L1380.47-50.78L1380.47-50.78Q1371.37-56.24 1357.17-56.24L1357.17-56.24L1354.44-56.24L1354.44 0L1337.15 0L1337.15-127.04L1337.15-127.04Q1346.98-127.95 1355.63-128.40L1355.63-128.40L1355.63-128.40Q1364.27-128.86 1374.46-128.86L1374.46-128.86L1374.46-128.86Q1386.11-128.86 1394.85-126.40L1394.85-126.40L1394.85-126.40Q1403.58-123.94 1409.41-119.39L1409.41-119.39L1409.41-119.39Q1415.23-114.84 1418.23-108.65L1418.23-108.65L1418.23-108.65Q1421.24-102.47 1421.24-95.00L1421.24-95.00L1421.24-95.00Q1421.24-81.72 1413.32-73.62L1413.32-73.62L1413.32-73.62Q1405.40-65.52 1390.48-61.52L1390.48-61.52L1390.48-61.52Q1394.12-59.88 1397.21-57.78L1397.21-57.78L1397.21-57.78Q1400.31-55.69 1403.04-52.69L1403.04-52.69L1403.04-52.69Q1405.77-49.69 1408.41-45.50L1408.41-45.50L1408.41-45.50Q1411.05-41.31 1413.78-35.31L1413.78-35.31L1427.61-5.46zM1374.46-114.30L1374.46-114.30L1374.46-114.30Q1368.28-114.30 1363.36-114.11L1363.36-114.11L1363.36-114.11Q1358.45-113.93 1354.44-113.57L1354.44-113.57L1354.44-70.80L1374.46-70.80L1374.46-70.80Q1387.57-70.80 1395.76-76.62L1395.76-76.62L1395.76-76.62Q1403.95-82.45 1403.95-93.37L1403.95-93.37L1403.95-93.37Q1403.95-102.47 1396.30-108.38L1396.30-108.38L1396.30-108.38Q1388.66-114.30 1374.46-114.30" fill="#93dbe9" stroke="none" stroke-width="none" transform="translate(-712.8949890136719,48.18291521344865)" style="fill: rgb(179, 183, 226);"></path></g></g>
</g>
</g>
<style id="breath-0eee8c98-eb3b-4ff6-877f-7dad5a3d19ea" data-anikit="">@keyframes breath-0eee8c98-eb3b-4ff6-877f-7dad5a3d19ea
{
  0% {
    animation-timing-function: cubic-bezier(0.9647,0.2413,-0.0705,0.7911);
    transform: scale(0.9099999999999999);
  }
  51% {
    animation-timing-function: cubic-bezier(0.9226,0.2631,-0.0308,0.7628);
    transform: scale(1.02994);
  }
  100% {
    transform: scale(0.9099999999999999);
  }
}</style></svg>